<mxfile host="Electron" agent="Mozilla/5.0 (Windows NT 10.0; Win64; x64) AppleWebKit/537.36 (KHTML, like Gecko) draw.io/24.7.8 Chrome/128.0.6613.36 Electron/32.0.1 Safari/537.36" version="24.7.8" pages="3">
  <diagram id="EC1ovMBbOlfkQJTIohDs" name="Flights">
    <mxGraphModel dx="1595" dy="703" grid="0" gridSize="10" guides="1" tooltips="1" connect="1" arrows="1" fold="1" page="0" pageScale="1" pageWidth="827" pageHeight="1169" math="0" shadow="0">
      <root>
        <mxCell id="0" />
        <mxCell id="1" parent="0" />
        <mxCell id="AZ_xCfwsIbXF0odujIhw-3" style="edgeStyle=orthogonalEdgeStyle;rounded=0;orthogonalLoop=1;jettySize=auto;html=1;entryX=0.5;entryY=0;entryDx=0;entryDy=0;" parent="1" source="AZ_xCfwsIbXF0odujIhw-1" edge="1">
          <mxGeometry relative="1" as="geometry">
            <mxPoint x="140" y="100" as="targetPoint" />
          </mxGeometry>
        </mxCell>
        <mxCell id="AZ_xCfwsIbXF0odujIhw-1" value="Начало" style="ellipse;whiteSpace=wrap;html=1;" parent="1" vertex="1">
          <mxGeometry x="80" y="40" width="120" height="40" as="geometry" />
        </mxCell>
        <mxCell id="AZ_xCfwsIbXF0odujIhw-161" style="edgeStyle=orthogonalEdgeStyle;rounded=0;orthogonalLoop=1;jettySize=auto;html=1;entryX=0.5;entryY=0;entryDx=0;entryDy=0;" parent="1" source="AZ_xCfwsIbXF0odujIhw-154" target="AZ_xCfwsIbXF0odujIhw-155" edge="1">
          <mxGeometry relative="1" as="geometry" />
        </mxCell>
        <mxCell id="AZ_xCfwsIbXF0odujIhw-166" style="edgeStyle=orthogonalEdgeStyle;rounded=0;orthogonalLoop=1;jettySize=auto;html=1;entryX=0.5;entryY=0;entryDx=0;entryDy=0;" parent="1" source="AZ_xCfwsIbXF0odujIhw-154" target="AZ_xCfwsIbXF0odujIhw-165" edge="1">
          <mxGeometry relative="1" as="geometry" />
        </mxCell>
        <mxCell id="AZ_xCfwsIbXF0odujIhw-154" value="Значение новое" style="rhombus;whiteSpace=wrap;html=1;" parent="1" vertex="1">
          <mxGeometry x="80" y="2050" width="120" height="40" as="geometry" />
        </mxCell>
        <mxCell id="AZ_xCfwsIbXF0odujIhw-162" style="edgeStyle=orthogonalEdgeStyle;rounded=0;orthogonalLoop=1;jettySize=auto;html=1;entryX=1;entryY=0.5;entryDx=0;entryDy=0;" parent="1" source="AZ_xCfwsIbXF0odujIhw-155" target="AZ_xCfwsIbXF0odujIhw-160" edge="1">
          <mxGeometry relative="1" as="geometry">
            <Array as="points">
              <mxPoint x="280" y="2170" />
            </Array>
          </mxGeometry>
        </mxCell>
        <mxCell id="AZ_xCfwsIbXF0odujIhw-155" value="Внести&lt;br&gt;изменения" style="shape=parallelogram;perimeter=parallelogramPerimeter;whiteSpace=wrap;html=1;fixedSize=1;" parent="1" vertex="1">
          <mxGeometry x="230" y="2090" width="100" height="40" as="geometry" />
        </mxCell>
        <mxCell id="AZ_xCfwsIbXF0odujIhw-157" value="Нет" style="text;html=1;align=center;verticalAlign=middle;whiteSpace=wrap;rounded=0;" parent="1" vertex="1">
          <mxGeometry x="210" y="2050" width="30" height="20" as="geometry" />
        </mxCell>
        <mxCell id="AZ_xCfwsIbXF0odujIhw-159" style="edgeStyle=orthogonalEdgeStyle;rounded=0;orthogonalLoop=1;jettySize=auto;html=1;entryX=0.5;entryY=0;entryDx=0;entryDy=0;" parent="1" target="AZ_xCfwsIbXF0odujIhw-154" edge="1">
          <mxGeometry relative="1" as="geometry">
            <mxPoint x="140" y="2030" as="sourcePoint" />
          </mxGeometry>
        </mxCell>
        <mxCell id="AZ_xCfwsIbXF0odujIhw-160" value="Конец" style="ellipse;whiteSpace=wrap;html=1;" parent="1" vertex="1">
          <mxGeometry x="80" y="2150" width="120" height="40" as="geometry" />
        </mxCell>
        <mxCell id="AZ_xCfwsIbXF0odujIhw-164" value="Да" style="text;html=1;align=center;verticalAlign=middle;whiteSpace=wrap;rounded=0;" parent="1" vertex="1">
          <mxGeometry x="50" y="2050" width="20" height="20" as="geometry" />
        </mxCell>
        <mxCell id="AZ_xCfwsIbXF0odujIhw-167" style="edgeStyle=orthogonalEdgeStyle;rounded=0;orthogonalLoop=1;jettySize=auto;html=1;entryX=0;entryY=0.5;entryDx=0;entryDy=0;" parent="1" source="AZ_xCfwsIbXF0odujIhw-165" target="AZ_xCfwsIbXF0odujIhw-160" edge="1">
          <mxGeometry relative="1" as="geometry">
            <Array as="points">
              <mxPoint y="2170" />
            </Array>
          </mxGeometry>
        </mxCell>
        <mxCell id="AZ_xCfwsIbXF0odujIhw-165" value="Сохранить&lt;br&gt;новую строку" style="shape=parallelogram;perimeter=parallelogramPerimeter;whiteSpace=wrap;html=1;fixedSize=1;" parent="1" vertex="1">
          <mxGeometry x="-50" y="2090" width="110" height="40" as="geometry" />
        </mxCell>
        <mxCell id="7PUiTkxnkHz-g_VqhM7t-3" value="Конец" style="ellipse;whiteSpace=wrap;html=1;" parent="1" vertex="1">
          <mxGeometry x="80" y="590" width="120" height="40" as="geometry" />
        </mxCell>
        <mxCell id="7PUiTkxnkHz-g_VqhM7t-4" style="edgeStyle=orthogonalEdgeStyle;rounded=0;orthogonalLoop=1;jettySize=auto;html=1;entryX=0.5;entryY=0;entryDx=0;entryDy=0;" parent="1" source="7PUiTkxnkHz-g_VqhM7t-5" target="7PUiTkxnkHz-g_VqhM7t-8" edge="1">
          <mxGeometry relative="1" as="geometry" />
        </mxCell>
        <mxCell id="7PUiTkxnkHz-g_VqhM7t-5" value="Цикл 1&lt;br&gt;&lt;font style=&quot;font-size: 10px;&quot;&gt;result == MessageBoxResult.Yes&lt;/font&gt;" style="shape=loopLimit;whiteSpace=wrap;html=1;" parent="1" vertex="1">
          <mxGeometry x="75" y="100" width="130" height="50" as="geometry" />
        </mxCell>
        <mxCell id="7PUiTkxnkHz-g_VqhM7t-6" style="edgeStyle=orthogonalEdgeStyle;rounded=0;orthogonalLoop=1;jettySize=auto;html=1;entryX=0.5;entryY=0;entryDx=0;entryDy=0;" parent="1" source="7PUiTkxnkHz-g_VqhM7t-8" target="7PUiTkxnkHz-g_VqhM7t-12" edge="1">
          <mxGeometry relative="1" as="geometry">
            <Array as="points">
              <mxPoint x="140" y="270" />
              <mxPoint x="140" y="270" />
            </Array>
          </mxGeometry>
        </mxCell>
        <mxCell id="7PUiTkxnkHz-g_VqhM7t-7" style="edgeStyle=orthogonalEdgeStyle;rounded=0;orthogonalLoop=1;jettySize=auto;html=1;entryX=0.5;entryY=0;entryDx=0;entryDy=0;" parent="1" source="7PUiTkxnkHz-g_VqhM7t-8" edge="1">
          <mxGeometry relative="1" as="geometry">
            <Array as="points">
              <mxPoint x="290" y="215" />
            </Array>
            <mxPoint x="290" y="260" as="targetPoint" />
          </mxGeometry>
        </mxCell>
        <mxCell id="7PUiTkxnkHz-g_VqhM7t-8" value="Предупреждение&lt;div&gt;&lt;span style=&quot;font-size: 10px;&quot;&gt;ВНИМАНИЕ! Это действие приведет к удалению связанных билетов!&lt;/span&gt;&lt;br&gt;&lt;/div&gt;" style="rhombus;whiteSpace=wrap;html=1;" parent="1" vertex="1">
          <mxGeometry x="15" y="170" width="250" height="90" as="geometry" />
        </mxCell>
        <mxCell id="7PUiTkxnkHz-g_VqhM7t-34" style="edgeStyle=orthogonalEdgeStyle;rounded=0;orthogonalLoop=1;jettySize=auto;html=1;entryX=0.5;entryY=0;entryDx=0;entryDy=0;" parent="1" source="7PUiTkxnkHz-g_VqhM7t-12" target="7PUiTkxnkHz-g_VqhM7t-32" edge="1">
          <mxGeometry relative="1" as="geometry" />
        </mxCell>
        <mxCell id="7PUiTkxnkHz-g_VqhM7t-12" value="Цикл 2&lt;br&gt;&lt;font style=&quot;font-size: 10px;&quot;&gt;result == MessageBoxResult.Yes&lt;/font&gt;" style="shape=loopLimit;whiteSpace=wrap;html=1;" parent="1" vertex="1">
          <mxGeometry x="60" y="290" width="160" height="31" as="geometry" />
        </mxCell>
        <mxCell id="7PUiTkxnkHz-g_VqhM7t-13" value="Да" style="text;html=1;align=center;verticalAlign=middle;whiteSpace=wrap;rounded=0;" parent="1" vertex="1">
          <mxGeometry x="110" y="260" width="20" height="20" as="geometry" />
        </mxCell>
        <mxCell id="7PUiTkxnkHz-g_VqhM7t-16" value="Нет" style="text;html=1;align=center;verticalAlign=middle;whiteSpace=wrap;rounded=0;" parent="1" vertex="1">
          <mxGeometry x="265" y="190" width="20" height="20" as="geometry" />
        </mxCell>
        <mxCell id="7PUiTkxnkHz-g_VqhM7t-17" style="edgeStyle=orthogonalEdgeStyle;rounded=0;orthogonalLoop=1;jettySize=auto;html=1;entryX=1;entryY=0.5;entryDx=0;entryDy=0;" parent="1" source="7PUiTkxnkHz-g_VqhM7t-18" target="7PUiTkxnkHz-g_VqhM7t-3" edge="1">
          <mxGeometry relative="1" as="geometry">
            <mxPoint x="290" y="360" as="targetPoint" />
            <Array as="points">
              <mxPoint x="290" y="610" />
            </Array>
          </mxGeometry>
        </mxCell>
        <mxCell id="7PUiTkxnkHz-g_VqhM7t-18" value="Возврат" style="shape=parallelogram;perimeter=parallelogramPerimeter;whiteSpace=wrap;html=1;fixedSize=1;" parent="1" vertex="1">
          <mxGeometry x="240" y="260" width="90" height="30" as="geometry" />
        </mxCell>
        <mxCell id="7PUiTkxnkHz-g_VqhM7t-19" value="" style="group" parent="1" vertex="1" connectable="0">
          <mxGeometry x="60" y="550" width="160" height="20" as="geometry" />
        </mxCell>
        <mxCell id="7PUiTkxnkHz-g_VqhM7t-20" value="" style="shape=loopLimit;whiteSpace=wrap;html=1;rotation=-180;direction=east;" parent="7PUiTkxnkHz-g_VqhM7t-19" vertex="1">
          <mxGeometry width="160" height="20" as="geometry" />
        </mxCell>
        <mxCell id="7PUiTkxnkHz-g_VqhM7t-21" value="Цикл 2" style="text;html=1;align=center;verticalAlign=middle;whiteSpace=wrap;rounded=0;direction=west;" parent="7PUiTkxnkHz-g_VqhM7t-19" vertex="1">
          <mxGeometry x="40" y="2.5" width="80" height="15" as="geometry" />
        </mxCell>
        <mxCell id="Uge1BYkxjvbwSHYDiC9e-2" style="edgeStyle=orthogonalEdgeStyle;rounded=0;orthogonalLoop=1;jettySize=auto;html=1;entryX=0.5;entryY=0;entryDx=0;entryDy=0;" parent="1" source="7PUiTkxnkHz-g_VqhM7t-32" target="Uge1BYkxjvbwSHYDiC9e-1" edge="1">
          <mxGeometry relative="1" as="geometry" />
        </mxCell>
        <mxCell id="7PUiTkxnkHz-g_VqhM7t-32" value="Цикл 3&lt;br&gt;&lt;font style=&quot;font-size: 10px;&quot;&gt;row != null&lt;/font&gt;" style="shape=loopLimit;whiteSpace=wrap;html=1;" parent="1" vertex="1">
          <mxGeometry x="60" y="340" width="160" height="31" as="geometry" />
        </mxCell>
        <mxCell id="Uge1BYkxjvbwSHYDiC9e-4" style="edgeStyle=orthogonalEdgeStyle;rounded=0;orthogonalLoop=1;jettySize=auto;html=1;entryX=0.5;entryY=0;entryDx=0;entryDy=0;" parent="1" source="Uge1BYkxjvbwSHYDiC9e-1" target="Uge1BYkxjvbwSHYDiC9e-3" edge="1">
          <mxGeometry relative="1" as="geometry" />
        </mxCell>
        <mxCell id="dO7drNUEkGS-otsHuuD3-1" style="edgeStyle=orthogonalEdgeStyle;rounded=0;orthogonalLoop=1;jettySize=auto;html=1;entryX=0.5;entryY=0;entryDx=0;entryDy=0;" parent="1" source="Uge1BYkxjvbwSHYDiC9e-1" target="Uge1BYkxjvbwSHYDiC9e-6" edge="1">
          <mxGeometry relative="1" as="geometry">
            <Array as="points">
              <mxPoint x="7" y="410" />
            </Array>
          </mxGeometry>
        </mxCell>
        <mxCell id="Uge1BYkxjvbwSHYDiC9e-1" value="&lt;div&gt;Запись выбрана&lt;/div&gt;" style="rhombus;whiteSpace=wrap;html=1;" parent="1" vertex="1">
          <mxGeometry x="72.5" y="390" width="135" height="40" as="geometry" />
        </mxCell>
        <mxCell id="dO7drNUEkGS-otsHuuD3-7" style="edgeStyle=orthogonalEdgeStyle;rounded=0;orthogonalLoop=1;jettySize=auto;html=1;entryX=0.5;entryY=1;entryDx=0;entryDy=0;" parent="1" source="Uge1BYkxjvbwSHYDiC9e-3" target="dO7drNUEkGS-otsHuuD3-4" edge="1">
          <mxGeometry relative="1" as="geometry" />
        </mxCell>
        <mxCell id="Uge1BYkxjvbwSHYDiC9e-3" value="Удаление&lt;br&gt;записей" style="shape=parallelogram;perimeter=parallelogramPerimeter;whiteSpace=wrap;html=1;fixedSize=1;" parent="1" vertex="1">
          <mxGeometry x="95" y="450" width="90" height="30" as="geometry" />
        </mxCell>
        <mxCell id="Uge1BYkxjvbwSHYDiC9e-5" value="Да" style="text;html=1;align=center;verticalAlign=middle;whiteSpace=wrap;rounded=0;" parent="1" vertex="1">
          <mxGeometry x="150" y="430" width="20" height="20" as="geometry" />
        </mxCell>
        <mxCell id="dO7drNUEkGS-otsHuuD3-12" style="edgeStyle=orthogonalEdgeStyle;rounded=0;orthogonalLoop=1;jettySize=auto;html=1;entryX=0;entryY=0.5;entryDx=0;entryDy=0;" parent="1" source="Uge1BYkxjvbwSHYDiC9e-6" target="7PUiTkxnkHz-g_VqhM7t-3" edge="1">
          <mxGeometry relative="1" as="geometry">
            <mxPoint x="7.5" y="570" as="targetPoint" />
            <Array as="points">
              <mxPoint x="10" y="610" />
            </Array>
          </mxGeometry>
        </mxCell>
        <mxCell id="Uge1BYkxjvbwSHYDiC9e-6" value="Ошибка&lt;br&gt;&lt;font style=&quot;font-size: 10px;&quot;&gt;Выбери запись для удаления&lt;/font&gt;" style="shape=parallelogram;perimeter=parallelogramPerimeter;whiteSpace=wrap;html=1;fixedSize=1;" parent="1" vertex="1">
          <mxGeometry x="-57.5" y="450" width="130" height="50" as="geometry" />
        </mxCell>
        <mxCell id="dO7drNUEkGS-otsHuuD3-2" value="Нет" style="text;html=1;align=center;verticalAlign=middle;whiteSpace=wrap;rounded=0;" parent="1" vertex="1">
          <mxGeometry x="50" y="390" width="20" height="20" as="geometry" />
        </mxCell>
        <mxCell id="dO7drNUEkGS-otsHuuD3-3" value="" style="group" parent="1" vertex="1" connectable="0">
          <mxGeometry x="60" y="510" width="160" height="20" as="geometry" />
        </mxCell>
        <mxCell id="dO7drNUEkGS-otsHuuD3-4" value="" style="shape=loopLimit;whiteSpace=wrap;html=1;rotation=-180;direction=east;" parent="dO7drNUEkGS-otsHuuD3-3" vertex="1">
          <mxGeometry width="160" height="20" as="geometry" />
        </mxCell>
        <mxCell id="dO7drNUEkGS-otsHuuD3-5" value="Цикл 3" style="text;html=1;align=center;verticalAlign=middle;whiteSpace=wrap;rounded=0;direction=west;" parent="dO7drNUEkGS-otsHuuD3-3" vertex="1">
          <mxGeometry x="40" y="2.5" width="80" height="15" as="geometry" />
        </mxCell>
        <mxCell id="dO7drNUEkGS-otsHuuD3-9" style="edgeStyle=orthogonalEdgeStyle;rounded=0;orthogonalLoop=1;jettySize=auto;html=1;entryX=0.5;entryY=1;entryDx=0;entryDy=0;" parent="1" source="dO7drNUEkGS-otsHuuD3-4" target="7PUiTkxnkHz-g_VqhM7t-20" edge="1">
          <mxGeometry relative="1" as="geometry" />
        </mxCell>
        <mxCell id="dO7drNUEkGS-otsHuuD3-11" style="edgeStyle=orthogonalEdgeStyle;rounded=0;orthogonalLoop=1;jettySize=auto;html=1;entryX=0.5;entryY=0;entryDx=0;entryDy=0;" parent="1" source="7PUiTkxnkHz-g_VqhM7t-20" target="7PUiTkxnkHz-g_VqhM7t-3" edge="1">
          <mxGeometry relative="1" as="geometry" />
        </mxCell>
      </root>
    </mxGraphModel>
  </diagram>
  <diagram name="Tickets &amp; Repair &amp; Workers &amp; Clients" id="JpL5yrquPBzvnQ_WXyoJ">
    <mxGraphModel dx="989" dy="582" grid="0" gridSize="10" guides="1" tooltips="1" connect="1" arrows="1" fold="1" page="0" pageScale="1" pageWidth="827" pageHeight="1169" math="0" shadow="0">
      <root>
        <mxCell id="GfaLNNudZ0-2-Tv1ZKhT-0" />
        <mxCell id="GfaLNNudZ0-2-Tv1ZKhT-1" parent="GfaLNNudZ0-2-Tv1ZKhT-0" />
        <mxCell id="C3XMuv0siGVimeoeYlWb-0" style="edgeStyle=orthogonalEdgeStyle;rounded=0;orthogonalLoop=1;jettySize=auto;html=1;entryX=0.5;entryY=0;entryDx=0;entryDy=0;" parent="GfaLNNudZ0-2-Tv1ZKhT-1" source="C3XMuv0siGVimeoeYlWb-1" edge="1">
          <mxGeometry relative="1" as="geometry">
            <mxPoint x="397.5" y="140" as="targetPoint" />
          </mxGeometry>
        </mxCell>
        <mxCell id="C3XMuv0siGVimeoeYlWb-1" value="Начало" style="ellipse;whiteSpace=wrap;html=1;" parent="GfaLNNudZ0-2-Tv1ZKhT-1" vertex="1">
          <mxGeometry x="337.5" y="80" width="120" height="40" as="geometry" />
        </mxCell>
        <mxCell id="C3XMuv0siGVimeoeYlWb-2" value="Конец" style="ellipse;whiteSpace=wrap;html=1;" parent="GfaLNNudZ0-2-Tv1ZKhT-1" vertex="1">
          <mxGeometry x="337.5" y="590" width="120" height="40" as="geometry" />
        </mxCell>
        <mxCell id="C3XMuv0siGVimeoeYlWb-3" style="edgeStyle=orthogonalEdgeStyle;rounded=0;orthogonalLoop=1;jettySize=auto;html=1;entryX=0.5;entryY=0;entryDx=0;entryDy=0;" parent="GfaLNNudZ0-2-Tv1ZKhT-1" source="C3XMuv0siGVimeoeYlWb-4" target="C3XMuv0siGVimeoeYlWb-7" edge="1">
          <mxGeometry relative="1" as="geometry" />
        </mxCell>
        <mxCell id="C3XMuv0siGVimeoeYlWb-4" value="Цикл 1&lt;br&gt;&lt;font style=&quot;font-size: 10px;&quot;&gt;result == MessageBoxResult.Yes&lt;/font&gt;" style="shape=loopLimit;whiteSpace=wrap;html=1;" parent="GfaLNNudZ0-2-Tv1ZKhT-1" vertex="1">
          <mxGeometry x="332.5" y="140" width="130" height="50" as="geometry" />
        </mxCell>
        <mxCell id="C3XMuv0siGVimeoeYlWb-5" style="edgeStyle=orthogonalEdgeStyle;rounded=0;orthogonalLoop=1;jettySize=auto;html=1;entryX=0.5;entryY=0;entryDx=0;entryDy=0;" parent="GfaLNNudZ0-2-Tv1ZKhT-1" source="C3XMuv0siGVimeoeYlWb-7" target="C3XMuv0siGVimeoeYlWb-9" edge="1">
          <mxGeometry relative="1" as="geometry">
            <Array as="points">
              <mxPoint x="397.5" y="310" />
              <mxPoint x="397.5" y="310" />
            </Array>
          </mxGeometry>
        </mxCell>
        <mxCell id="C3XMuv0siGVimeoeYlWb-6" style="edgeStyle=orthogonalEdgeStyle;rounded=0;orthogonalLoop=1;jettySize=auto;html=1;entryX=0.5;entryY=0;entryDx=0;entryDy=0;" parent="GfaLNNudZ0-2-Tv1ZKhT-1" source="C3XMuv0siGVimeoeYlWb-7" edge="1">
          <mxGeometry relative="1" as="geometry">
            <Array as="points">
              <mxPoint x="548" y="240" />
            </Array>
            <mxPoint x="547.5" y="300" as="targetPoint" />
          </mxGeometry>
        </mxCell>
        <mxCell id="C3XMuv0siGVimeoeYlWb-7" value="Предупреждение&lt;div&gt;&lt;span style=&quot;font-size: 10px;&quot;&gt;Удалить запись?&lt;/span&gt;&lt;/div&gt;" style="rhombus;whiteSpace=wrap;html=1;" parent="GfaLNNudZ0-2-Tv1ZKhT-1" vertex="1">
          <mxGeometry x="311.25" y="210" width="172.5" height="60" as="geometry" />
        </mxCell>
        <mxCell id="C3XMuv0siGVimeoeYlWb-8" style="edgeStyle=orthogonalEdgeStyle;rounded=0;orthogonalLoop=1;jettySize=auto;html=1;entryX=0.5;entryY=0;entryDx=0;entryDy=0;" parent="GfaLNNudZ0-2-Tv1ZKhT-1" source="C3XMuv0siGVimeoeYlWb-9" target="C3XMuv0siGVimeoeYlWb-18" edge="1">
          <mxGeometry relative="1" as="geometry" />
        </mxCell>
        <mxCell id="C3XMuv0siGVimeoeYlWb-9" value="Цикл 2&lt;br&gt;&lt;font style=&quot;font-size: 10px;&quot;&gt;result == MessageBoxResult.Yes&lt;/font&gt;" style="shape=loopLimit;whiteSpace=wrap;html=1;" parent="GfaLNNudZ0-2-Tv1ZKhT-1" vertex="1">
          <mxGeometry x="317.5" y="300" width="160" height="31" as="geometry" />
        </mxCell>
        <mxCell id="C3XMuv0siGVimeoeYlWb-10" value="Да" style="text;html=1;align=center;verticalAlign=middle;whiteSpace=wrap;rounded=0;" parent="GfaLNNudZ0-2-Tv1ZKhT-1" vertex="1">
          <mxGeometry x="367.5" y="270" width="20" height="20" as="geometry" />
        </mxCell>
        <mxCell id="C3XMuv0siGVimeoeYlWb-11" value="Нет" style="text;html=1;align=center;verticalAlign=middle;whiteSpace=wrap;rounded=0;" parent="GfaLNNudZ0-2-Tv1ZKhT-1" vertex="1">
          <mxGeometry x="490" y="220" width="20" height="20" as="geometry" />
        </mxCell>
        <mxCell id="C3XMuv0siGVimeoeYlWb-12" style="edgeStyle=orthogonalEdgeStyle;rounded=0;orthogonalLoop=1;jettySize=auto;html=1;entryX=1;entryY=0.5;entryDx=0;entryDy=0;" parent="GfaLNNudZ0-2-Tv1ZKhT-1" source="C3XMuv0siGVimeoeYlWb-13" target="C3XMuv0siGVimeoeYlWb-2" edge="1">
          <mxGeometry relative="1" as="geometry">
            <mxPoint x="547.5" y="400" as="targetPoint" />
            <Array as="points">
              <mxPoint x="548" y="610" />
            </Array>
          </mxGeometry>
        </mxCell>
        <mxCell id="C3XMuv0siGVimeoeYlWb-13" value="Возврат" style="shape=parallelogram;perimeter=parallelogramPerimeter;whiteSpace=wrap;html=1;fixedSize=1;" parent="GfaLNNudZ0-2-Tv1ZKhT-1" vertex="1">
          <mxGeometry x="497.5" y="300" width="90" height="30" as="geometry" />
        </mxCell>
        <mxCell id="C3XMuv0siGVimeoeYlWb-14" value="" style="group" parent="GfaLNNudZ0-2-Tv1ZKhT-1" vertex="1" connectable="0">
          <mxGeometry x="317.5" y="554" width="160" height="20" as="geometry" />
        </mxCell>
        <mxCell id="C3XMuv0siGVimeoeYlWb-15" value="" style="shape=loopLimit;whiteSpace=wrap;html=1;rotation=-180;direction=east;" parent="C3XMuv0siGVimeoeYlWb-14" vertex="1">
          <mxGeometry width="160" height="20" as="geometry" />
        </mxCell>
        <mxCell id="C3XMuv0siGVimeoeYlWb-16" value="Цикл 2" style="text;html=1;align=center;verticalAlign=middle;whiteSpace=wrap;rounded=0;direction=west;" parent="C3XMuv0siGVimeoeYlWb-14" vertex="1">
          <mxGeometry x="40" y="2.5" width="80" height="15" as="geometry" />
        </mxCell>
        <mxCell id="C3XMuv0siGVimeoeYlWb-17" style="edgeStyle=orthogonalEdgeStyle;rounded=0;orthogonalLoop=1;jettySize=auto;html=1;entryX=0.5;entryY=0;entryDx=0;entryDy=0;" parent="GfaLNNudZ0-2-Tv1ZKhT-1" target="C3XMuv0siGVimeoeYlWb-21" edge="1">
          <mxGeometry relative="1" as="geometry">
            <mxPoint x="397.51428571428573" y="370" as="sourcePoint" />
          </mxGeometry>
        </mxCell>
        <mxCell id="C3XMuv0siGVimeoeYlWb-18" value="Цикл 3&lt;br&gt;&lt;font style=&quot;font-size: 10px;&quot;&gt;row != null&lt;/font&gt;" style="shape=loopLimit;whiteSpace=wrap;html=1;" parent="GfaLNNudZ0-2-Tv1ZKhT-1" vertex="1">
          <mxGeometry x="317.5" y="350" width="160" height="31" as="geometry" />
        </mxCell>
        <mxCell id="C3XMuv0siGVimeoeYlWb-19" style="edgeStyle=orthogonalEdgeStyle;rounded=0;orthogonalLoop=1;jettySize=auto;html=1;entryX=0.5;entryY=0;entryDx=0;entryDy=0;" parent="GfaLNNudZ0-2-Tv1ZKhT-1" source="C3XMuv0siGVimeoeYlWb-21" target="C3XMuv0siGVimeoeYlWb-23" edge="1">
          <mxGeometry relative="1" as="geometry" />
        </mxCell>
        <mxCell id="C3XMuv0siGVimeoeYlWb-20" style="edgeStyle=orthogonalEdgeStyle;rounded=0;orthogonalLoop=1;jettySize=auto;html=1;entryX=0.5;entryY=0;entryDx=0;entryDy=0;" parent="GfaLNNudZ0-2-Tv1ZKhT-1" source="C3XMuv0siGVimeoeYlWb-21" target="C3XMuv0siGVimeoeYlWb-26" edge="1">
          <mxGeometry relative="1" as="geometry">
            <Array as="points">
              <mxPoint x="264.5" y="414" />
            </Array>
          </mxGeometry>
        </mxCell>
        <mxCell id="C3XMuv0siGVimeoeYlWb-21" value="&lt;div&gt;Запись выбрана&lt;/div&gt;" style="rhombus;whiteSpace=wrap;html=1;" parent="GfaLNNudZ0-2-Tv1ZKhT-1" vertex="1">
          <mxGeometry x="330" y="394" width="135" height="40" as="geometry" />
        </mxCell>
        <mxCell id="C3XMuv0siGVimeoeYlWb-22" style="edgeStyle=orthogonalEdgeStyle;rounded=0;orthogonalLoop=1;jettySize=auto;html=1;entryX=0.5;entryY=1;entryDx=0;entryDy=0;" parent="GfaLNNudZ0-2-Tv1ZKhT-1" source="C3XMuv0siGVimeoeYlWb-23" target="C3XMuv0siGVimeoeYlWb-29" edge="1">
          <mxGeometry relative="1" as="geometry" />
        </mxCell>
        <mxCell id="C3XMuv0siGVimeoeYlWb-23" value="Удаление&lt;br&gt;записи" style="shape=parallelogram;perimeter=parallelogramPerimeter;whiteSpace=wrap;html=1;fixedSize=1;" parent="GfaLNNudZ0-2-Tv1ZKhT-1" vertex="1">
          <mxGeometry x="352.5" y="454" width="90" height="30" as="geometry" />
        </mxCell>
        <mxCell id="C3XMuv0siGVimeoeYlWb-24" value="Да" style="text;html=1;align=center;verticalAlign=middle;whiteSpace=wrap;rounded=0;" parent="GfaLNNudZ0-2-Tv1ZKhT-1" vertex="1">
          <mxGeometry x="407.5" y="434" width="20" height="20" as="geometry" />
        </mxCell>
        <mxCell id="C3XMuv0siGVimeoeYlWb-25" style="edgeStyle=orthogonalEdgeStyle;rounded=0;orthogonalLoop=1;jettySize=auto;html=1;entryX=0;entryY=0.5;entryDx=0;entryDy=0;" parent="GfaLNNudZ0-2-Tv1ZKhT-1" source="C3XMuv0siGVimeoeYlWb-26" target="C3XMuv0siGVimeoeYlWb-2" edge="1">
          <mxGeometry relative="1" as="geometry">
            <mxPoint x="265" y="610" as="targetPoint" />
            <Array as="points">
              <mxPoint x="268" y="610" />
            </Array>
          </mxGeometry>
        </mxCell>
        <mxCell id="C3XMuv0siGVimeoeYlWb-26" value="Ошибка&lt;br&gt;&lt;font style=&quot;font-size: 10px;&quot;&gt;Выбери запись для удаления&lt;/font&gt;" style="shape=parallelogram;perimeter=parallelogramPerimeter;whiteSpace=wrap;html=1;fixedSize=1;" parent="GfaLNNudZ0-2-Tv1ZKhT-1" vertex="1">
          <mxGeometry x="200" y="454" width="130" height="50" as="geometry" />
        </mxCell>
        <mxCell id="C3XMuv0siGVimeoeYlWb-27" value="Нет" style="text;html=1;align=center;verticalAlign=middle;whiteSpace=wrap;rounded=0;" parent="GfaLNNudZ0-2-Tv1ZKhT-1" vertex="1">
          <mxGeometry x="307.5" y="394" width="20" height="20" as="geometry" />
        </mxCell>
        <mxCell id="C3XMuv0siGVimeoeYlWb-28" value="" style="group" parent="GfaLNNudZ0-2-Tv1ZKhT-1" vertex="1" connectable="0">
          <mxGeometry x="317.5" y="514" width="160" height="20" as="geometry" />
        </mxCell>
        <mxCell id="C3XMuv0siGVimeoeYlWb-29" value="" style="shape=loopLimit;whiteSpace=wrap;html=1;rotation=-180;direction=east;" parent="C3XMuv0siGVimeoeYlWb-28" vertex="1">
          <mxGeometry width="160" height="20" as="geometry" />
        </mxCell>
        <mxCell id="C3XMuv0siGVimeoeYlWb-30" value="Цикл 3" style="text;html=1;align=center;verticalAlign=middle;whiteSpace=wrap;rounded=0;direction=west;" parent="C3XMuv0siGVimeoeYlWb-28" vertex="1">
          <mxGeometry x="40" y="2.5" width="80" height="15" as="geometry" />
        </mxCell>
        <mxCell id="C3XMuv0siGVimeoeYlWb-31" style="edgeStyle=orthogonalEdgeStyle;rounded=0;orthogonalLoop=1;jettySize=auto;html=1;entryX=0.5;entryY=1;entryDx=0;entryDy=0;" parent="GfaLNNudZ0-2-Tv1ZKhT-1" source="C3XMuv0siGVimeoeYlWb-29" target="C3XMuv0siGVimeoeYlWb-15" edge="1">
          <mxGeometry relative="1" as="geometry" />
        </mxCell>
        <mxCell id="C3XMuv0siGVimeoeYlWb-32" style="edgeStyle=orthogonalEdgeStyle;rounded=0;orthogonalLoop=1;jettySize=auto;html=1;entryX=0.5;entryY=0;entryDx=0;entryDy=0;" parent="GfaLNNudZ0-2-Tv1ZKhT-1" source="C3XMuv0siGVimeoeYlWb-15" target="C3XMuv0siGVimeoeYlWb-2" edge="1">
          <mxGeometry relative="1" as="geometry" />
        </mxCell>
      </root>
    </mxGraphModel>
  </diagram>
  <diagram name="Buses" id="ul3t7YQ4a2J1Nwr8CQPY">
    <mxGraphModel dx="1195" dy="703" grid="0" gridSize="10" guides="1" tooltips="1" connect="1" arrows="1" fold="1" page="0" pageScale="1" pageWidth="827" pageHeight="1169" math="0" shadow="0">
      <root>
        <mxCell id="7tuzXcdUXrdJQI32HFEA-0" />
        <mxCell id="7tuzXcdUXrdJQI32HFEA-1" parent="7tuzXcdUXrdJQI32HFEA-0" />
        <mxCell id="IvkzZS3m2IzoN--Upe-0-0" style="edgeStyle=orthogonalEdgeStyle;rounded=0;orthogonalLoop=1;jettySize=auto;html=1;entryX=0.5;entryY=0;entryDx=0;entryDy=0;" parent="7tuzXcdUXrdJQI32HFEA-1" source="IvkzZS3m2IzoN--Upe-0-1" edge="1">
          <mxGeometry relative="1" as="geometry">
            <mxPoint x="417.5" y="120" as="targetPoint" />
          </mxGeometry>
        </mxCell>
        <mxCell id="IvkzZS3m2IzoN--Upe-0-1" value="Начало" style="ellipse;whiteSpace=wrap;html=1;" parent="7tuzXcdUXrdJQI32HFEA-1" vertex="1">
          <mxGeometry x="357.5" y="60" width="120" height="40" as="geometry" />
        </mxCell>
        <mxCell id="IvkzZS3m2IzoN--Upe-0-2" value="Конец" style="ellipse;whiteSpace=wrap;html=1;" parent="7tuzXcdUXrdJQI32HFEA-1" vertex="1">
          <mxGeometry x="357.5" y="610" width="120" height="40" as="geometry" />
        </mxCell>
        <mxCell id="IvkzZS3m2IzoN--Upe-0-3" style="edgeStyle=orthogonalEdgeStyle;rounded=0;orthogonalLoop=1;jettySize=auto;html=1;entryX=0.5;entryY=0;entryDx=0;entryDy=0;" parent="7tuzXcdUXrdJQI32HFEA-1" source="IvkzZS3m2IzoN--Upe-0-4" target="IvkzZS3m2IzoN--Upe-0-7" edge="1">
          <mxGeometry relative="1" as="geometry" />
        </mxCell>
        <mxCell id="IvkzZS3m2IzoN--Upe-0-4" value="Цикл 1&lt;br&gt;&lt;font style=&quot;font-size: 10px;&quot;&gt;result == MessageBoxResult.Yes&lt;/font&gt;" style="shape=loopLimit;whiteSpace=wrap;html=1;" parent="7tuzXcdUXrdJQI32HFEA-1" vertex="1">
          <mxGeometry x="352.5" y="120" width="130" height="50" as="geometry" />
        </mxCell>
        <mxCell id="IvkzZS3m2IzoN--Upe-0-5" style="edgeStyle=orthogonalEdgeStyle;rounded=0;orthogonalLoop=1;jettySize=auto;html=1;entryX=0.5;entryY=0;entryDx=0;entryDy=0;" parent="7tuzXcdUXrdJQI32HFEA-1" source="IvkzZS3m2IzoN--Upe-0-7" target="IvkzZS3m2IzoN--Upe-0-9" edge="1">
          <mxGeometry relative="1" as="geometry">
            <Array as="points">
              <mxPoint x="417.5" y="290" />
              <mxPoint x="417.5" y="290" />
            </Array>
          </mxGeometry>
        </mxCell>
        <mxCell id="IvkzZS3m2IzoN--Upe-0-6" style="edgeStyle=orthogonalEdgeStyle;rounded=0;orthogonalLoop=1;jettySize=auto;html=1;entryX=0.5;entryY=0;entryDx=0;entryDy=0;" parent="7tuzXcdUXrdJQI32HFEA-1" source="IvkzZS3m2IzoN--Upe-0-7" edge="1">
          <mxGeometry relative="1" as="geometry">
            <Array as="points">
              <mxPoint x="567.5" y="235" />
            </Array>
            <mxPoint x="567.5" y="280" as="targetPoint" />
          </mxGeometry>
        </mxCell>
        <mxCell id="IvkzZS3m2IzoN--Upe-0-7" value="Предупреждение&lt;div&gt;&lt;span style=&quot;font-size: 10px;&quot;&gt;ВНИМАНИЕ! Это действие приведет к удалению связанных рейсов и ремонтных работ!&lt;/span&gt;&lt;br&gt;&lt;/div&gt;" style="rhombus;whiteSpace=wrap;html=1;" parent="7tuzXcdUXrdJQI32HFEA-1" vertex="1">
          <mxGeometry x="276.25" y="190" width="282.5" height="90" as="geometry" />
        </mxCell>
        <mxCell id="IvkzZS3m2IzoN--Upe-0-8" style="edgeStyle=orthogonalEdgeStyle;rounded=0;orthogonalLoop=1;jettySize=auto;html=1;entryX=0.5;entryY=0;entryDx=0;entryDy=0;" parent="7tuzXcdUXrdJQI32HFEA-1" source="IvkzZS3m2IzoN--Upe-0-9" target="IvkzZS3m2IzoN--Upe-0-18" edge="1">
          <mxGeometry relative="1" as="geometry" />
        </mxCell>
        <mxCell id="IvkzZS3m2IzoN--Upe-0-9" value="Цикл 2&lt;br&gt;&lt;font style=&quot;font-size: 10px;&quot;&gt;result == MessageBoxResult.Yes&lt;/font&gt;" style="shape=loopLimit;whiteSpace=wrap;html=1;" parent="7tuzXcdUXrdJQI32HFEA-1" vertex="1">
          <mxGeometry x="337.5" y="310" width="160" height="31" as="geometry" />
        </mxCell>
        <mxCell id="IvkzZS3m2IzoN--Upe-0-10" value="Да" style="text;html=1;align=center;verticalAlign=middle;whiteSpace=wrap;rounded=0;" parent="7tuzXcdUXrdJQI32HFEA-1" vertex="1">
          <mxGeometry x="387.5" y="280" width="20" height="20" as="geometry" />
        </mxCell>
        <mxCell id="IvkzZS3m2IzoN--Upe-0-11" value="Нет" style="text;html=1;align=center;verticalAlign=middle;whiteSpace=wrap;rounded=0;" parent="7tuzXcdUXrdJQI32HFEA-1" vertex="1">
          <mxGeometry x="542.5" y="210" width="20" height="20" as="geometry" />
        </mxCell>
        <mxCell id="IvkzZS3m2IzoN--Upe-0-12" style="edgeStyle=orthogonalEdgeStyle;rounded=0;orthogonalLoop=1;jettySize=auto;html=1;entryX=1;entryY=0.5;entryDx=0;entryDy=0;" parent="7tuzXcdUXrdJQI32HFEA-1" source="IvkzZS3m2IzoN--Upe-0-13" target="IvkzZS3m2IzoN--Upe-0-2" edge="1">
          <mxGeometry relative="1" as="geometry">
            <mxPoint x="567.5" y="380" as="targetPoint" />
            <Array as="points">
              <mxPoint x="567.5" y="630" />
            </Array>
          </mxGeometry>
        </mxCell>
        <mxCell id="IvkzZS3m2IzoN--Upe-0-13" value="Возврат" style="shape=parallelogram;perimeter=parallelogramPerimeter;whiteSpace=wrap;html=1;fixedSize=1;" parent="7tuzXcdUXrdJQI32HFEA-1" vertex="1">
          <mxGeometry x="517.5" y="280" width="90" height="30" as="geometry" />
        </mxCell>
        <mxCell id="IvkzZS3m2IzoN--Upe-0-14" value="" style="group" parent="7tuzXcdUXrdJQI32HFEA-1" vertex="1" connectable="0">
          <mxGeometry x="337.5" y="570" width="160" height="20" as="geometry" />
        </mxCell>
        <mxCell id="IvkzZS3m2IzoN--Upe-0-15" value="" style="shape=loopLimit;whiteSpace=wrap;html=1;rotation=-180;direction=east;" parent="IvkzZS3m2IzoN--Upe-0-14" vertex="1">
          <mxGeometry width="160" height="20" as="geometry" />
        </mxCell>
        <mxCell id="IvkzZS3m2IzoN--Upe-0-16" value="Цикл 2" style="text;html=1;align=center;verticalAlign=middle;whiteSpace=wrap;rounded=0;direction=west;" parent="IvkzZS3m2IzoN--Upe-0-14" vertex="1">
          <mxGeometry x="40" y="2.5" width="80" height="15" as="geometry" />
        </mxCell>
        <mxCell id="IvkzZS3m2IzoN--Upe-0-17" style="edgeStyle=orthogonalEdgeStyle;rounded=0;orthogonalLoop=1;jettySize=auto;html=1;entryX=0.5;entryY=0;entryDx=0;entryDy=0;" parent="7tuzXcdUXrdJQI32HFEA-1" source="IvkzZS3m2IzoN--Upe-0-18" target="IvkzZS3m2IzoN--Upe-0-21" edge="1">
          <mxGeometry relative="1" as="geometry" />
        </mxCell>
        <mxCell id="IvkzZS3m2IzoN--Upe-0-18" value="Цикл 3&lt;br&gt;&lt;font style=&quot;font-size: 10px;&quot;&gt;row != null&lt;/font&gt;" style="shape=loopLimit;whiteSpace=wrap;html=1;" parent="7tuzXcdUXrdJQI32HFEA-1" vertex="1">
          <mxGeometry x="337.5" y="360" width="160" height="31" as="geometry" />
        </mxCell>
        <mxCell id="IvkzZS3m2IzoN--Upe-0-19" style="edgeStyle=orthogonalEdgeStyle;rounded=0;orthogonalLoop=1;jettySize=auto;html=1;entryX=0.5;entryY=0;entryDx=0;entryDy=0;" parent="7tuzXcdUXrdJQI32HFEA-1" source="IvkzZS3m2IzoN--Upe-0-21" target="IvkzZS3m2IzoN--Upe-0-23" edge="1">
          <mxGeometry relative="1" as="geometry" />
        </mxCell>
        <mxCell id="IvkzZS3m2IzoN--Upe-0-20" style="edgeStyle=orthogonalEdgeStyle;rounded=0;orthogonalLoop=1;jettySize=auto;html=1;entryX=0.5;entryY=0;entryDx=0;entryDy=0;" parent="7tuzXcdUXrdJQI32HFEA-1" source="IvkzZS3m2IzoN--Upe-0-21" target="IvkzZS3m2IzoN--Upe-0-26" edge="1">
          <mxGeometry relative="1" as="geometry">
            <Array as="points">
              <mxPoint x="284.5" y="430" />
            </Array>
          </mxGeometry>
        </mxCell>
        <mxCell id="IvkzZS3m2IzoN--Upe-0-21" value="&lt;div&gt;Запись выбрана&lt;/div&gt;" style="rhombus;whiteSpace=wrap;html=1;" parent="7tuzXcdUXrdJQI32HFEA-1" vertex="1">
          <mxGeometry x="350" y="410" width="135" height="40" as="geometry" />
        </mxCell>
        <mxCell id="IvkzZS3m2IzoN--Upe-0-22" style="edgeStyle=orthogonalEdgeStyle;rounded=0;orthogonalLoop=1;jettySize=auto;html=1;entryX=0.5;entryY=1;entryDx=0;entryDy=0;" parent="7tuzXcdUXrdJQI32HFEA-1" source="IvkzZS3m2IzoN--Upe-0-23" target="IvkzZS3m2IzoN--Upe-0-29" edge="1">
          <mxGeometry relative="1" as="geometry" />
        </mxCell>
        <mxCell id="IvkzZS3m2IzoN--Upe-0-23" value="Удаление&lt;br&gt;записей" style="shape=parallelogram;perimeter=parallelogramPerimeter;whiteSpace=wrap;html=1;fixedSize=1;" parent="7tuzXcdUXrdJQI32HFEA-1" vertex="1">
          <mxGeometry x="372.5" y="470" width="90" height="30" as="geometry" />
        </mxCell>
        <mxCell id="IvkzZS3m2IzoN--Upe-0-24" value="Да" style="text;html=1;align=center;verticalAlign=middle;whiteSpace=wrap;rounded=0;" parent="7tuzXcdUXrdJQI32HFEA-1" vertex="1">
          <mxGeometry x="427.5" y="450" width="20" height="20" as="geometry" />
        </mxCell>
        <mxCell id="IvkzZS3m2IzoN--Upe-0-25" style="edgeStyle=orthogonalEdgeStyle;rounded=0;orthogonalLoop=1;jettySize=auto;html=1;entryX=0;entryY=0.5;entryDx=0;entryDy=0;" parent="7tuzXcdUXrdJQI32HFEA-1" source="IvkzZS3m2IzoN--Upe-0-26" target="IvkzZS3m2IzoN--Upe-0-2" edge="1">
          <mxGeometry relative="1" as="geometry">
            <mxPoint x="285" y="590" as="targetPoint" />
            <Array as="points">
              <mxPoint x="287.5" y="630" />
            </Array>
          </mxGeometry>
        </mxCell>
        <mxCell id="IvkzZS3m2IzoN--Upe-0-26" value="Ошибка&lt;br&gt;&lt;font style=&quot;font-size: 10px;&quot;&gt;Выбери запись для удаления&lt;/font&gt;" style="shape=parallelogram;perimeter=parallelogramPerimeter;whiteSpace=wrap;html=1;fixedSize=1;" parent="7tuzXcdUXrdJQI32HFEA-1" vertex="1">
          <mxGeometry x="220" y="470" width="130" height="50" as="geometry" />
        </mxCell>
        <mxCell id="IvkzZS3m2IzoN--Upe-0-27" value="Нет" style="text;html=1;align=center;verticalAlign=middle;whiteSpace=wrap;rounded=0;" parent="7tuzXcdUXrdJQI32HFEA-1" vertex="1">
          <mxGeometry x="327.5" y="410" width="20" height="20" as="geometry" />
        </mxCell>
        <mxCell id="IvkzZS3m2IzoN--Upe-0-28" value="" style="group" parent="7tuzXcdUXrdJQI32HFEA-1" vertex="1" connectable="0">
          <mxGeometry x="337.5" y="530" width="160" height="20" as="geometry" />
        </mxCell>
        <mxCell id="IvkzZS3m2IzoN--Upe-0-29" value="" style="shape=loopLimit;whiteSpace=wrap;html=1;rotation=-180;direction=east;" parent="IvkzZS3m2IzoN--Upe-0-28" vertex="1">
          <mxGeometry width="160" height="20" as="geometry" />
        </mxCell>
        <mxCell id="IvkzZS3m2IzoN--Upe-0-30" value="Цикл 3" style="text;html=1;align=center;verticalAlign=middle;whiteSpace=wrap;rounded=0;direction=west;" parent="IvkzZS3m2IzoN--Upe-0-28" vertex="1">
          <mxGeometry x="40" y="2.5" width="80" height="15" as="geometry" />
        </mxCell>
        <mxCell id="IvkzZS3m2IzoN--Upe-0-31" style="edgeStyle=orthogonalEdgeStyle;rounded=0;orthogonalLoop=1;jettySize=auto;html=1;entryX=0.5;entryY=1;entryDx=0;entryDy=0;" parent="7tuzXcdUXrdJQI32HFEA-1" source="IvkzZS3m2IzoN--Upe-0-29" target="IvkzZS3m2IzoN--Upe-0-15" edge="1">
          <mxGeometry relative="1" as="geometry" />
        </mxCell>
        <mxCell id="IvkzZS3m2IzoN--Upe-0-32" style="edgeStyle=orthogonalEdgeStyle;rounded=0;orthogonalLoop=1;jettySize=auto;html=1;entryX=0.5;entryY=0;entryDx=0;entryDy=0;" parent="7tuzXcdUXrdJQI32HFEA-1" source="IvkzZS3m2IzoN--Upe-0-15" target="IvkzZS3m2IzoN--Upe-0-2" edge="1">
          <mxGeometry relative="1" as="geometry" />
        </mxCell>
      </root>
    </mxGraphModel>
  </diagram>
</mxfile>
